# xmcd CD database file
#
# Track frame offsets:
#	150
#	5975
#	17647
#	30745
#	48915
#	62497
#	73120
#	82910
#	95135
#	107735
#	118420
#	130017
#	139557
#	153902
#	167857
#	177677
#	187577
#	200005
#	215940
#	234657
#
# Disc length: 3339 seconds
#
# Revision: 2
# Processed by: cddbd v1.5.2PL0 Copyright (c) Steve Scherf et al.
# Submitted via: CDex 1.80
#
DISCID=210d0914
DTITLE=Various Artist - The Country Collection Disk #8
DYEAR=1900
DGENRE=Country
TTITLE0=Welcome To My World - Tammy Wynette
TTITLE1=D.I.V.O.R.C.E. - Tammy Wynette
TTITLE2=Stand By Your Man - Tammy Wynette
TTITLE3=Cryin' In The Rain - Tammy Wynette
TTITLE4=This Little Girl Of Mine - Faron Young
TTITLE5=Going Steady - Faron Young
TTITLE6=Hello Walls - Faron Young
TTITLE7=Four In The Morning - Faron Young
TTITLE8=Little Blossom - Dolly Parton
TTITLE9=It Wasn't God Who Made Honkey Tonk Angels - Dolly Parton
TTITLE10=Walk On By - Leroy Van Dyke
TTITLE11=The Auctioneer - Leroy Van Dyke
TTITLE12=Jambalaya - Freddie Fender
TTITLE13=The Rains Came - Freddie Fender
TTITLE14=Before The Next Teardrop Falls - Freddie Fender
TTITLE15=Wasted Days And Wasted Nights - Freddie Fender
TTITLE16=San Antonio Stroll - Tanya Tucker
TTITLE17=You Are So Beautiful - Tanya Tucker
TTITLE18=Delta Dawn - Tanya Tucker
TTITLE19=What's You Mama's Name - Tanya Tucker
EXTD=
EXTT0=
EXTT1=
EXTT2=
EXTT3=
EXTT4=
EXTT5=
EXTT6=
EXTT7=
EXTT8=
EXTT9=
EXTT10=
EXTT11=
EXTT12=
EXTT13=
EXTT14=
EXTT15=
EXTT16=
EXTT17=
EXTT18=
EXTT19=
PLAYORDER=
